<svg width="68" height="50" viewBox="0 0 68 50" fill="none" xmlns="http://www.w3.org/2000/svg">
<g clip-path="url(#clip0_262_456)">
<path fill-rule="evenodd" clip-rule="evenodd" d="M14.2865 21.166C17.6846 28.741 25.0912 33.994 33.6829 33.994C42.3785 33.994 49.8599 28.6149 53.2018 20.8944C49.1405 20.873 45.2248 21.0935 41.068 20.6154C33.7345 19.7735 29.5605 17.0332 21.7711 19.5732C19.7974 20.2163 17.8022 20.6307 15.671 21.0189C15.3689 21.074 14.8892 21.123 14.2865 21.166ZM12.1694 12.8221C12.1897 13.0751 12.2812 14.1131 12.3098 14.364C13.8081 14.2358 15.0305 13.9125 16.7389 13.0864C19.7814 11.6148 24.6625 7.52923 28.3216 7.48355C31.4439 7.44458 31.9014 9.87256 34.9676 9.16036C37.9797 8.46065 39.374 13.0249 42.7828 14.2544C45.5604 15.2562 51.1373 14.2523 54.6385 14.5921C54.6612 14.3707 54.8451 13.1211 54.8617 12.8979C51.8812 12.841 48.5412 13.1905 45.6801 12.9004C42.9271 12.6212 38.5984 8.94296 36.7064 6.78445C36.2286 6.24003 34.9455 4.82782 34.4576 4.8939C32.8573 5.11008 31.8388 7.40895 29.2716 5.33236L26.3071 2.85231C24.7454 1.61123 24.1197 2.51646 22.8952 3.71249C21.1901 5.37986 20.1913 6.79298 18.5741 8.48318C16.7116 10.4298 15.1137 12.3145 12.1694 12.8221ZM24.0469 17.5812C21.3308 18.1622 18.9466 19.2361 15.9065 19.7672C15.2178 19.8874 14.4901 19.9696 13.7351 20.025C13.639 19.7568 13.2914 18.858 13.2054 18.5842C14.6264 18.4606 15.8196 18.2758 16.5519 18.0054C17.3518 17.7097 18.178 17.3806 18.9115 16.9893C18.9244 16.9829 18.9115 16.9893 18.9244 16.9829C19.0881 16.8952 19.2459 16.8057 19.3976 16.7131C25.3764 13.0462 24.8354 17.1294 28.7121 15.3959C35.4297 12.3916 33.6792 14.5753 40.297 17.3486C43.5333 18.7048 49.6582 18.4819 53.951 18.3406C53.8872 18.5522 53.499 19.3747 53.429 19.5838C49.0794 19.5601 44.887 19.871 40.476 19.3634C36.1909 18.8704 32.4102 17.2564 27.8466 17.1869C26.541 17.1677 25.3239 17.3151 24.0469 17.5812ZM16.5507 16.7144C15.737 17.0417 14.4262 17.3331 12.8551 17.4698C12.8019 17.2408 12.5407 15.7644 12.4952 15.5317C18.8047 14.9252 24.2069 8.82025 28.4859 8.85679C31.2803 8.88023 31.8207 11.4318 35.2356 10.5129C36.8099 10.0884 37.2327 11.3137 37.9631 12.0731C38.3442 12.4689 38.7053 12.6912 39.1149 13.0782C39.5791 13.517 39.8297 13.6969 40.3105 14.0276C42.4672 15.5089 43.9908 15.7534 46.9795 15.6956C49.1863 15.6529 52.2755 15.8292 54.5657 15.6599C54.5289 15.8551 54.1709 16.9306 54.1294 17.1242C49.3245 16.7908 44.992 18.2901 40.4091 16.1361C34.3781 13.3017 35.2906 11.2266 28.858 13.9429C25.553 15.3378 25.1661 13.1096 22.0747 13.9557C19.9386 14.5403 18.4151 16.0274 16.5507 16.7144Z" fill="#4B784F"/>
<path fill-rule="evenodd" clip-rule="evenodd" d="M32.6867 14C33.496 14.06 34.2808 14.2128 35.0322 14.4479C35.9671 14.964 37.047 15.8345 39.126 16.8262C39.9474 17.5817 40.6619 18.4647 41.2428 19.4448C40.988 19.4208 40.7322 19.394 40.4758 19.3644C36.1907 18.8715 32.41 17.2574 27.8464 17.188C26.5408 17.1688 25.3237 17.3162 24.0467 17.5823L23.9134 17.6112C24.5539 16.8957 25.2798 16.2663 26.0729 15.7408C26.7472 15.9128 27.5209 15.9295 28.7119 15.397C30.5622 14.5697 31.7695 14.1364 32.6867 14ZM41.8901 20.7024C42.553 22.2032 42.9242 23.8782 42.9242 25.6448C42.9242 28.3444 42.0589 30.8293 40.6072 32.8069C38.4355 33.5767 36.1065 33.995 33.6827 33.995C29.2754 33.995 25.18 32.6124 21.7776 30.2434C21.2065 28.8321 20.8896 27.278 20.8896 25.6448C20.8896 23.3072 21.5384 21.1302 22.6552 19.3045C29.8861 17.2434 34.0168 19.8069 41.0678 20.6165C41.3429 20.6482 41.6168 20.6765 41.8901 20.7024Z" fill="#4B784F"/>
<path fill-rule="evenodd" clip-rule="evenodd" d="M16.5888 37.3308L15.8924 35.7148L15.8439 35.7279L15.7742 35.7489L15.6707 35.7791L15.5961 35.8019L15.5307 35.8211L15.4515 35.8446L15.3937 35.864L15.3391 35.8808L15.2571 35.907L15.1453 35.9475L15.0732 35.9724L14.9577 36.0172L14.7879 36.0909L14.6578 36.1533L14.5874 36.1862L14.4892 36.2364L14.3986 36.2867L14.3409 36.3186L14.2951 36.3467L14.2356 36.3832L14.1705 36.4246L14.1026 36.4694L13.9755 36.5586L13.938 36.5872L13.8776 36.6338L13.7646 36.7263L13.6909 36.7924L13.5874 36.8902L13.5244 36.9553L13.4913 36.9909L13.4253 37.0649L13.3657 37.138L13.3203 37.195L13.2466 37.2951L13.2042 37.3569L13.1139 37.5003L13.0498 37.6212L13.0114 37.7047L12.9678 37.8039L12.9183 37.9339L12.8836 38.0332L12.852 38.1434L12.8327 38.2153L12.8149 38.3072L12.7967 38.401L12.7848 38.4933L12.7771 38.5715L12.7713 38.6333L12.77 38.6952L12.7676 38.7582V38.8593L12.7706 38.9531L12.7753 39.0462L12.7832 39.1345L12.7921 39.2003L12.8066 39.295L12.8268 39.3933L12.8646 39.5553L12.8833 39.6223L12.9131 39.7216L12.9454 39.8202L12.9856 39.9253L13.0264 40.0267L13.0679 40.1189L13.1216 40.2346L13.1683 40.3232L13.2097 40.3997L13.2564 40.4798L13.3402 40.6165L13.3854 40.6856L13.5005 40.8488L13.5834 40.9599L13.7461 41.1588L13.8763 41.315L14.0765 41.5643L14.2211 41.7519L14.3452 41.9197L14.4612 42.0795L14.5478 42.2019L14.6863 42.412L14.7809 42.5621L14.9068 42.771L15.0634 43.0685L15.1487 43.2542L15.2279 43.4391L15.3348 43.7408L15.3744 43.9007L15.4278 44.1838L15.4548 44.4134L15.4662 44.6138L15.4647 44.843L15.4484 45.0638L15.4361 45.1761L15.4082 45.3923L15.3584 45.6703L15.2912 45.9663L15.1899 46.3557L15.0658 46.7905L14.9798 47.0816L14.8635 47.4592L14.7821 47.725L14.6507 48.1619L14.5411 48.5145H16.6281L16.7257 48.2043C16.8276 47.8806 16.8556 47.8121 16.8556 47.8121L16.9422 47.5518L16.9845 47.4114L17.0165 47.2996L17.0779 47.1039L17.1371 46.8944L17.1838 46.7208L17.2268 46.5646L17.2726 46.3853L17.3091 46.2269L17.3447 46.079L17.3834 45.9033L17.4098 45.7647L17.4295 45.6429L17.4506 45.5053L17.4703 45.3725L17.4841 45.2492L17.4915 45.1624L17.5022 45.0501L17.5087 44.9268L17.5127 44.8318L17.5151 44.7057L17.516 44.6262L17.5145 44.5312L17.5105 44.4411L17.5065 44.358L17.5022 44.288L17.4964 44.224L17.4844 44.1147L17.4715 44.0057L17.4583 43.9168L17.443 43.8318L17.4276 43.7454L17.4132 43.6763L17.3941 43.591L17.3819 43.5398L17.372 43.5024L17.3515 43.4235L17.334 43.3599L17.3158 43.3002L17.2612 43.133L17.2207 43.0155L17.1903 42.9357L17.1568 42.8505L17.1332 42.7902L17.0982 42.7071L17.0619 42.6294L17.0401 42.5819L17.022 42.5423L16.9465 42.3868L16.9044 42.307L16.8218 42.1511L16.7328 41.9924L16.6324 41.8213L16.5384 41.6803L16.4239 41.4973L16.3453 41.3792L16.2252 41.2093L16.1159 41.061L16.0229 40.9343L15.9277 40.8074L15.8488 40.7072L15.7745 40.6095L15.6732 40.4816L15.5635 40.3439L15.4631 40.2203L15.3759 40.1177L15.3111 40.0389L15.2559 39.9719L15.2003 39.8988L15.1447 39.823L15.1137 39.7749L15.0895 39.7368L15.0336 39.6375L14.9719 39.5118L14.9224 39.3955L14.8788 39.2743L14.8506 39.1595L14.8352 39.0788L14.8285 39.014L14.8214 38.9451L14.819 38.8934L14.8183 38.8404L14.8202 38.7798L14.8279 38.7082L14.8358 38.6486L14.8463 38.591L14.8567 38.5505L14.8693 38.5042L14.8874 38.45L14.9068 38.3998L14.9298 38.3465L14.9605 38.2853L14.9927 38.2266L15.0259 38.1775L15.0578 38.1309L15.0907 38.0895L15.1134 38.0606L15.1503 38.0201L15.1932 37.9775L15.2454 37.9266L15.2786 37.8977L15.313 37.8688L15.3578 37.8338L15.4057 37.7991L15.4662 37.7595L15.5245 37.7232L15.5743 37.6943L15.6452 37.6556L15.7386 37.6106L15.8132 37.5786L15.9053 37.5424L16.0192 37.5022L16.1061 37.4751L16.1973 37.4477L16.3413 37.4041L16.5888 37.3308Z" fill="#4B784F"/>
<path d="M4.26454 48.5185C5.13195 48.4548 5.9229 48.0581 6.44887 47.4598L4.94557 46.0013C4.75766 46.2768 4.40548 46.4608 4.01798 46.4608C3.34832 46.4608 2.81989 45.9322 2.81989 45.2778C2.81989 44.5888 3.38363 44.0952 4.01798 44.0952C4.3585 44.0952 4.72235 44.2444 4.9339 44.5431L6.4372 43.0962C5.8618 42.4415 4.98088 42.028 4.01798 42.028C2.32585 42.028 0.901161 43.2746 0.724609 44.9304V45.6222C0.891335 47.1726 2.1708 48.4022 3.76958 48.5185H4.26454ZM9.86967 48.5185H10.4721C12.1519 48.3696 13.4722 46.9854 13.4722 45.2934C13.4722 43.5136 11.992 42.0667 10.1718 42.0667C8.33935 42.0667 6.86 43.5136 6.86 45.2934C6.86 46.9854 8.17969 48.3696 9.86967 48.5185ZM25.7102 48.5185H26.3823C27.4023 48.4643 28.266 48.1951 28.8371 47.5764L27.2515 46.3935C27.0989 46.5655 26.5469 46.7147 26.1594 46.7034C25.6426 46.6922 25.1612 46.4391 25.0436 46.1751H28.8018C29.4832 43.8093 27.9795 42.064 25.8189 42.0527C23.8225 42.0408 22.742 43.6488 22.742 45.2681C22.742 46.8118 23.9483 48.3763 25.7102 48.5185ZM32.5978 48.5185H32.9951C34.087 48.485 35.014 48.2216 35.6152 47.5694L34.0299 46.3868C33.8773 46.5588 33.3255 46.708 32.9377 46.6964C32.4213 46.6852 31.9395 46.4327 31.8222 46.1685H35.5799C36.2612 43.8026 34.7582 42.0573 32.5972 42.046C30.6005 42.0341 29.5203 43.6418 29.5203 45.2611C29.5203 46.8368 30.7773 48.4338 32.5978 48.5185ZM48.2971 48.5185H50.4108V45.2084C50.4108 43.4284 48.9311 41.9811 47.1107 41.9811C45.2902 41.9811 43.8108 43.4284 43.8108 45.2084C43.8108 46.9881 45.2902 48.435 47.1107 48.435C47.5568 48.435 47.9679 48.3087 48.2971 48.1135V48.5185ZM51.5263 48.5185H53.6403V45.3272C53.6403 44.6384 54.1334 44.2021 54.7914 44.2021C55.4488 44.2021 55.9306 44.6387 55.9306 45.3272V48.5185H58.0443V45.3272C58.0443 43.5243 56.5999 42.1349 54.7914 42.1349C52.9709 42.1349 51.5263 43.5252 51.5263 45.3272V48.5185ZM62.1442 48.5185H62.7267C63.4848 48.4658 63.993 48.2143 64.4802 47.7582C65.0556 48.3093 65.5954 48.298 66.3241 48.298V46.1621C66.0189 46.1621 65.725 45.8637 65.725 45.3814V40.2596H63.611V42.3956C63.2822 42.1775 62.8597 42.0509 62.4132 42.0509C60.593 42.0509 59.1131 43.4975 59.1131 45.2778C59.1131 46.9811 60.4481 48.3848 62.1442 48.5185ZM10.1718 46.465C9.50244 46.465 8.97371 45.9483 8.97371 45.2934C8.97371 44.6506 9.50244 44.1339 10.1718 44.1339C10.8292 44.1339 11.3582 44.6506 11.3582 45.2934C11.3582 45.9483 10.8292 46.465 10.1718 46.465ZM25.0436 44.4067C25.0436 44.1999 25.2668 43.8556 25.8892 43.8556C26.5232 43.8556 26.7464 44.2344 26.7231 44.4067H25.0436ZM31.8222 44.4C31.8222 44.1932 32.0455 43.8489 32.6675 43.8489C33.3019 43.8489 33.5251 44.2277 33.5015 44.4H31.8222ZM43.0122 48.5081V46.395C42.4365 46.395 42.0254 45.9702 42.0254 45.3731V40.125H39.9117V45.4191C39.9117 47.1867 41.2267 48.5081 43.0122 48.5081ZM47.1107 46.3679C46.4533 46.3679 45.9245 45.8512 45.9245 45.2084C45.9245 44.565 46.4533 44.0486 47.1107 44.0486C47.7684 44.0486 48.2971 44.565 48.2971 45.2084C48.2971 45.8512 47.7684 46.3679 47.1107 46.3679ZM62.4132 46.4492C61.7558 46.4492 61.2271 45.9322 61.2271 45.2778C61.2271 44.6348 61.7558 44.1177 62.4132 44.1177C63.0826 44.1177 63.6073 44.6478 63.6073 45.2909C63.6073 45.9453 63.0826 46.4492 62.4132 46.4492Z" fill="#4B784F"/>
<path fill-rule="evenodd" clip-rule="evenodd" d="M20.6933 37.3308L19.9969 35.7148L19.9484 35.7279L19.8787 35.7489L19.7752 35.7791L19.7006 35.8019L19.6352 35.8211L19.556 35.8446L19.4982 35.864L19.4436 35.8808L19.3616 35.907L19.2498 35.9475L19.1777 35.9724L19.0622 36.0172L18.8921 36.0909L18.7622 36.1533L18.6919 36.1862L18.5934 36.2364L18.5028 36.2867L18.4451 36.3186L18.3993 36.3467L18.3401 36.3832L18.2753 36.4246L18.2071 36.4694L18.08 36.5586L18.0425 36.5872L17.982 36.6338L17.869 36.7263L17.7954 36.7924L17.6919 36.8902L17.6289 36.9553L17.5958 36.9909L17.5295 37.0649L17.4699 37.138L17.4248 37.195L17.3511 37.2951L17.3087 37.3569L17.2184 37.5003L17.1542 37.6212L17.1156 37.7047L17.072 37.8039L17.0225 37.9339L16.9881 38.0332L16.9565 38.1434L16.9372 38.2153L16.9194 38.3072L16.9012 38.401L16.8893 38.4933L16.8816 38.5715L16.8758 38.6333L16.8742 38.6952L16.8721 38.7582V38.8593L16.8751 38.9531L16.8797 39.0462L16.8877 39.1345L16.8963 39.2003L16.9111 39.295L16.9313 39.3933L16.9691 39.5553L16.9878 39.6223L17.0176 39.7216L17.0499 39.8202L17.0904 39.9253L17.1309 40.0267L17.1724 40.1189L17.2261 40.2346L17.2728 40.3232L17.3142 40.3997L17.3609 40.4798L17.4447 40.6165L17.4895 40.6856L17.6047 40.8488L17.6876 40.9599L17.8506 41.1588L17.9808 41.315L18.181 41.5643L18.3256 41.7519L18.4497 41.9197L18.566 42.0795L18.6523 42.2019L18.7908 42.412L18.8854 42.5621L19.011 42.771L19.1679 43.0685L19.2532 43.2542L19.3324 43.4391L19.4393 43.7408L19.4789 43.9007L19.5323 44.1838L19.5593 44.4134L19.5704 44.6138L19.5689 44.843L19.5526 45.0638L19.5406 45.1761L19.5127 45.3923L19.4629 45.6703L19.3957 45.9663L19.2944 46.3557L19.1703 46.7905L19.084 47.0816L18.9677 47.4592L18.8863 47.725L18.7552 48.1619L18.6456 48.5145H20.7326L20.8302 48.2043C20.9318 47.8806 20.9601 47.8121 20.9601 47.8121L21.0464 47.5518L21.089 47.4114L21.121 47.2996L21.1824 47.1039L21.2416 46.8944L21.2883 46.7208L21.3316 46.5646L21.3767 46.3853L21.4136 46.2269L21.4492 46.079L21.4879 45.9033L21.5143 45.7647L21.534 45.6429L21.5551 45.5053L21.5745 45.3725L21.5883 45.2492L21.596 45.1624L21.6067 45.0501L21.6132 44.9268L21.6172 44.8318L21.6196 44.7057L21.6202 44.6262L21.619 44.5312L21.615 44.4411L21.611 44.358L21.6067 44.288L21.6009 44.224L21.5886 44.1147L21.576 44.0057L21.5625 43.9168L21.5472 43.8318L21.5321 43.7454L21.5177 43.6763L21.4986 43.591L21.4864 43.5398L21.4765 43.5024L21.4557 43.4235L21.4385 43.3599L21.42 43.3002L21.3657 43.133L21.3249 43.0155L21.2948 42.9357L21.2613 42.8505L21.2377 42.7902L21.2023 42.7071L21.1664 42.6294L21.1446 42.5819L21.1265 42.5423L21.0507 42.3868L21.0086 42.307L20.926 42.1511L20.8373 41.9924L20.7369 41.8213L20.6426 41.6803L20.5281 41.4973L20.4498 41.3792L20.3297 41.2093L20.2204 41.061L20.1274 40.9343L20.0322 40.8074L19.9533 40.7072L19.879 40.6095L19.7776 40.4816L19.6677 40.3439L19.5676 40.2203L19.4804 40.1177L19.4156 40.0389L19.3604 39.9719L19.3048 39.8988L19.2492 39.823L19.2182 39.7749L19.194 39.7368L19.1381 39.6375L19.076 39.5118L19.0266 39.3955L18.983 39.2743L18.9551 39.1595L18.9394 39.0788L18.933 39.014L18.9262 38.9451L18.9234 38.8934L18.9228 38.8404L18.9247 38.7798L18.9323 38.7082L18.9403 38.6486L18.9508 38.591L18.9615 38.5505L18.9735 38.5042L18.9919 38.45L19.011 38.3998L19.0343 38.3465L19.065 38.2853L19.0972 38.2266L19.1304 38.1775L19.1623 38.1309L19.1949 38.0895L19.2179 38.0606L19.2547 38.0201L19.2974 37.9775L19.3499 37.9266L19.3828 37.8977L19.4175 37.8688L19.462 37.8338L19.5102 37.7991L19.5704 37.7595L19.629 37.7232L19.6788 37.6943L19.7497 37.6556L19.843 37.6106L19.9177 37.5786L20.0101 37.5424L20.1237 37.5022L20.2106 37.4751L20.3018 37.4477L20.4458 37.4041L20.6933 37.3308Z" fill="#4B784F"/>
</g>
<defs>
<clipPath id="clip0_262_456">
<rect width="67.4286" height="49.1429" fill="white" transform="translate(0.571289 0.859375)"/>
</clipPath>
</defs>
</svg>
